<?xml version="1.0" encoding="UTF-8" standalone="no"?>
<!-- Uploaded to: SVG Repo, www.svgrepo.com, Generator: SVG Repo Mixer Tools -->

<svg
   width="800px"
   height="800px"
   viewBox="0 0 24 24"
   fill="none"
   version="1.1"
   id="svg2"
   sodipodi:docname="_back.svg"
   inkscape:version="1.4 (86a8ad7, 2024-10-11)"
   xmlns:inkscape="http://www.inkscape.org/namespaces/inkscape"
   xmlns:sodipodi="http://sodipodi.sourceforge.net/DTD/sodipodi-0.dtd"
   xmlns="http://www.w3.org/2000/svg"
   xmlns:svg="http://www.w3.org/2000/svg">
  <defs
     id="defs2" />
  <sodipodi:namedview
     id="namedview2"
     pagecolor="#ffffff"
     bordercolor="#000000"
     borderopacity="0.25"
     inkscape:showpageshadow="2"
     inkscape:pageopacity="0.0"
     inkscape:pagecheckerboard="0"
     inkscape:deskcolor="#d1d1d1"
     inkscape:zoom="0.625625"
     inkscape:cx="409.19081"
     inkscape:cy="437.16284"
     inkscape:window-width="2400"
     inkscape:window-height="1261"
     inkscape:window-x="-9"
     inkscape:window-y="-9"
     inkscape:window-maximized="1"
     inkscape:current-layer="svg2" />
  <g
     id="g2"
     style="stroke:#808080;stroke-opacity:1"
     transform="matrix(1.117294,0,0,1.117294,-1.4184387,-1.4131967)">
    <path
       d="m 22,8.33994 v 7.31996 c 0,1.5 -1.63,2.44 -2.93,1.69 L 15.9,15.5299 12.73,13.7 c -0.2,-0.12 -0.36,-0.25 -0.49,-0.41 v -2.56 c 0.13,-0.16 0.29,-0.29 0.49,-0.41 L 15.9,8.48993 19.07,6.66996 c 1.3,-0.77 2.93,0.16998 2.93,1.66998 z"
       stroke="#292D32"
       stroke-width="1.5"
       stroke-linecap="round"
       stroke-linejoin="round"
       id="path1"
       style="stroke:#808080;stroke-opacity:1" />
    <path
       d="m 12.24,8.33994 v 7.31996 c 0,1.5 -1.63,2.44 -2.93001,1.69 L 6.14001,15.5299 2.97,13.7 c -1.3,-0.75 -1.3,-2.62 0,-3.38 L 6.14001,8.48993 9.30999,6.66996 C 10.61,5.89996 12.24,6.83994 12.24,8.33994 Z"
       stroke="#292D32"
       stroke-width="1.5"
       stroke-linecap="round"
       stroke-linejoin="round"
       id="path2"
       style="stroke:#808080;stroke-opacity:1" />
  </g>
</svg>
