<?xml version="1.0" encoding="UTF-8" standalone="no"?>
<!-- Uploaded to: SVG Repo, www.svgrepo.com, Generator: SVG Repo Mixer Tools -->

<svg
   width="1400"
   height="800"
   viewBox="0 0 42 24"
   fill="none"
   version="1.1"
   id="svg2"
   sodipodi:docname="_back.svg"
   inkscape:version="1.4 (86a8ad7, 2024-10-11)"
   xmlns:inkscape="http://www.inkscape.org/namespaces/inkscape"
   xmlns:sodipodi="http://sodipodi.sourceforge.net/DTD/sodipodi-0.dtd"
   xmlns="http://www.w3.org/2000/svg"
   xmlns:svg="http://www.w3.org/2000/svg">
  <defs
     id="defs2" />
  <sodipodi:namedview
     id="namedview2"
     pagecolor="#ffffff"
     bordercolor="#000000"
     borderopacity="0.25"
     inkscape:showpageshadow="2"
     inkscape:pageopacity="0.0"
     inkscape:pagecheckerboard="0"
     inkscape:deskcolor="#d1d1d1"
     inkscape:zoom="0.3128125"
     inkscape:cx="1224.3756"
     inkscape:cy="557.84216"
     inkscape:window-width="1920"
     inkscape:window-height="1111"
     inkscape:window-x="-9"
     inkscape:window-y="1341"
     inkscape:window-maximized="1"
     inkscape:current-layer="svg2" />
  <g
     id="g1">
    <path
       d="M 2.9013552,8.6243027 16.734597,1.3436477 c 3.282262,-1.73064696 6.850976,1.766454 5.191942,5.084523 l -1.933551,3.8670423 c -0.537097,1.074195 -0.537097,2.339357 0,3.413552 l 1.933551,3.867101 c 1.659034,3.318069 -1.90968,6.803234 -5.191942,5.084523 L 2.9013552,15.379735 c -2.721293,-1.43226 -2.721293,-5.323232 0,-6.7554323 z"
       stroke="#292D32"
       stroke-width="1.79032"
       stroke-linecap="round"
       stroke-linejoin="round"
       id="path1-0"
       style="stroke:#808080;stroke-opacity:1" />
    <path
       d="m 21.668443,8.6243026 13.833242,-7.280655 c 3.282263,-1.73064695 6.850977,1.766454 5.191942,5.084523 l -1.933551,3.8670424 c -0.537097,1.074195 -0.537097,2.339357 0,3.413552 l 1.933551,3.867101 c 1.659034,3.318069 -1.90968,6.803234 -5.191942,5.084523 L 21.668443,15.379735 c -2.721292,-1.43226 -2.721292,-5.323231 0,-6.7554324 z"
       stroke="#292D32"
       stroke-width="1.79032"
       stroke-linecap="round"
       stroke-linejoin="round"
       id="path1-0-9"
       style="stroke:#808080;stroke-opacity:1" />
  </g>
</svg>
