<?xml version="1.0" encoding="UTF-8" standalone="no"?>
<!-- Uploaded to: SVG Repo, www.svgrepo.com, Generator: SVG Repo Mixer Tools -->

<svg
   width="800px"
   height="800px"
   viewBox="0 0 24 24"
   fill="none"
   version="1.1"
   id="svg3"
   sodipodi:docname="_back.svg"
   inkscape:version="1.4 (86a8ad7, 2024-10-11)"
   xmlns:inkscape="http://www.inkscape.org/namespaces/inkscape"
   xmlns:sodipodi="http://sodipodi.sourceforge.net/DTD/sodipodi-0.dtd"
   xmlns="http://www.w3.org/2000/svg"
   xmlns:svg="http://www.w3.org/2000/svg">
  <defs
     id="defs3" />
  <sodipodi:namedview
     id="namedview3"
     pagecolor="#ffffff"
     bordercolor="#000000"
     borderopacity="0.25"
     inkscape:showpageshadow="2"
     inkscape:pageopacity="0.0"
     inkscape:pagecheckerboard="0"
     inkscape:deskcolor="#d1d1d1"
     inkscape:zoom="0.2659375"
     inkscape:cx="-203.05523"
     inkscape:cy="693.77203"
     inkscape:window-width="1920"
     inkscape:window-height="1111"
     inkscape:window-x="-9"
     inkscape:window-y="1341"
     inkscape:window-maximized="1"
     inkscape:current-layer="svg3" />
  <g
     id="g1"
     transform="matrix(1.1162791,0,0,1.1162791,-1.3953492,-1.3953492)">
    <path
       d="m 9,22 h 6 c 5,0 7,-2 7,-7 V 9 C 22,4 20,2 15,2 H 9 C 4,2 2,4 2,9 v 6 c 0,5 2,7 7,7 z"
       stroke="#292D32"
       stroke-width="1.5"
       stroke-linecap="round"
       stroke-linejoin="round"
       id="path1"
       style="stroke:#808080;stroke-opacity:1" />
    <path
       d="M 9.00002,15.3802 H 13.92 c 1.7,0 3.08,-1.38 3.08,-3.08 0,-1.7 -1.38,-3.07999 -3.08,-3.07999 H 7.15002"
       stroke="#292D32"
       stroke-width="1.5"
       stroke-miterlimit="10"
       stroke-linecap="round"
       stroke-linejoin="round"
       id="path2"
       style="stroke:#808080;stroke-opacity:1" />
    <path
       d="M 8.57,10.7701 7,9.19012 l 1.57,-1.57"
       stroke="#292D32"
       stroke-width="1.5"
       stroke-linecap="round"
       stroke-linejoin="round"
       id="path3"
       style="stroke:#808080;stroke-opacity:1" />
  </g>
</svg>
