<?xml version="1.0" encoding="UTF-8" standalone="no"?>
<!-- Uploaded to: SVG Repo, www.svgrepo.com, Generator: SVG Repo Mixer Tools -->

<svg
   width="800px"
   height="800px"
   viewBox="0 0 24 24"
   fill="none"
   version="1.1"
   id="svg4"
   sodipodi:docname="_notes.svg"
   inkscape:version="1.4 (86a8ad7, 2024-10-11)"
   xmlns:inkscape="http://www.inkscape.org/namespaces/inkscape"
   xmlns:sodipodi="http://sodipodi.sourceforge.net/DTD/sodipodi-0.dtd"
   xmlns="http://www.w3.org/2000/svg"
   xmlns:svg="http://www.w3.org/2000/svg">
  <defs
     id="defs4" />
  <sodipodi:namedview
     id="namedview4"
     pagecolor="#ffffff"
     bordercolor="#000000"
     borderopacity="0.25"
     inkscape:showpageshadow="2"
     inkscape:pageopacity="0.0"
     inkscape:pagecheckerboard="0"
     inkscape:deskcolor="#d1d1d1"
     inkscape:zoom="0.531875"
     inkscape:cx="116.56874"
     inkscape:cy="465.3349"
     inkscape:window-width="1920"
     inkscape:window-height="1111"
     inkscape:window-x="-9"
     inkscape:window-y="1341"
     inkscape:window-maximized="1"
     inkscape:current-layer="svg4" />
  <g
     id="g1"
     transform="matrix(1.1162791,0,0,1.1162791,-1.3953492,-1.3953492)">
    <path
       d="M 20,8.25 V 18 c 0,3 -1.79,4 -4,4 H 8 C 5.79,22 4,21 4,18 V 8.25 C 4,5 5.79,4.25 8,4.25 8,4.87 8.24997,5.43 8.65997,5.84 9.06997,6.25 9.63,6.5 10.25,6.5 h 3.5 C 14.99,6.5 16,5.49 16,4.25 c 2.21,0 4,0.75 4,4 z"
       stroke="#292D32"
       stroke-width="1.5"
       stroke-linecap="round"
       stroke-linejoin="round"
       id="path1"
       style="stroke:#808080;stroke-opacity:1" />
    <path
       d="M 16,4.25 C 16,5.49 14.99,6.5 13.75,6.5 h -3.5 C 9.63,6.5 9.06997,6.25 8.65997,5.84 8.24997,5.43 8,4.87 8,4.25 8,3.01 9.01,2 10.25,2 h 3.5 c 0.62,0 1.18,0.25 1.59,0.66 C 15.75,3.07 16,3.63 16,4.25 Z"
       stroke="#292D32"
       stroke-width="1.5"
       stroke-linecap="round"
       stroke-linejoin="round"
       id="path2"
       style="stroke:#808080;stroke-opacity:1" />
    <path
       d="m 8,13 h 4"
       stroke="#292D32"
       stroke-width="1.5"
       stroke-linecap="round"
       stroke-linejoin="round"
       id="path3"
       style="stroke:#808080;stroke-opacity:1" />
    <path
       d="m 8,17 h 8"
       stroke="#292D32"
       stroke-width="1.5"
       stroke-linecap="round"
       stroke-linejoin="round"
       id="path4"
       style="stroke:#808080;stroke-opacity:1" />
  </g>
</svg>
